<svg width="21" height="20" viewBox="0 0 21 20" fill="none" xmlns="http://www.w3.org/2000/svg">
<path d="M15.501 19.2377C14.4672 20.2403 13.3384 20.082 12.2518 19.6071C11.102 19.1216 10.0471 19.1005 8.83391 19.6071C7.31483 20.2615 6.5131 20.0715 5.60587 19.2377C0.457875 13.9289 1.21741 5.84439 7.06165 5.54887C8.48579 5.62275 9.47741 6.32988 10.3108 6.39321C11.5556 6.13991 12.7477 5.41167 14.0768 5.50665C15.6698 5.6333 16.8724 6.26656 17.6636 7.40641C14.3722 9.38005 15.1529 13.7178 18.1699 14.9316C17.5686 16.5147 16.788 18.0873 15.4904 19.2483L15.501 19.2377ZM10.2053 5.48554C10.0471 3.13195 11.9565 1.18998 14.1507 1C14.4566 3.72299 11.6822 5.7494 10.2053 5.48554Z" fill="black"/>
</svg>
