<svg width="20" height="20" viewBox="0 0 20 20" fill="none" xmlns="http://www.w3.org/2000/svg">
<path d="M15.8332 4.16602L4.1665 15.8327" stroke="#131919" stroke-width="2" stroke-linecap="round"/>
<path d="M4.87361 3.45891C4.48309 3.06838 3.84992 3.06838 3.4594 3.45891C3.06887 3.84943 3.06887 4.4826 3.4594 4.87312L4.87361 3.45891ZM9.29273 10.7065L9.99984 11.4136L11.4141 9.99935L10.7069 9.29224L9.29273 10.7065ZM3.4594 4.87312L9.29273 10.7065L10.7069 9.29224L4.87361 3.45891L3.4594 4.87312Z" fill="#131919"/>
<path d="M15.1264 16.5411C15.5169 16.9316 16.1501 16.9316 16.5406 16.5411C16.9311 16.1506 16.9311 15.5174 16.5406 15.1269L15.1264 16.5411ZM13.2073 11.7935L12.5002 11.0864L11.0859 12.5007L11.7931 13.2078L13.2073 11.7935ZM16.5406 15.1269L13.2073 11.7935L11.7931 13.2078L15.1264 16.5411L16.5406 15.1269Z" fill="#131919"/>
</svg>
