<svg width="21" height="20" viewBox="0 0 21 20" fill="none" xmlns="http://www.w3.org/2000/svg">
<path fill-rule="evenodd" clip-rule="evenodd" d="M20.5 10C20.5 4.47758 16.0224 0 10.5 0C4.97758 0 0.5 4.47758 0.5 10C0.5 14.9908 4.15635 19.1281 8.93765 19.8792V12.8913H6.3979V10H8.93765V7.79635C8.93765 5.29035 10.4311 3.90518 12.7149 3.90518C13.8089 3.90518 14.9536 4.10064 14.9536 4.10064V6.56165H13.6922C12.4505 6.56165 12.0623 7.33229 12.0623 8.124V9.99992H14.8354L14.3925 12.8912H12.0623V19.879C16.8436 19.1294 20.4999 14.9922 20.4999 9.99992L20.5 10Z" fill="#1977F3"/>
<path fill-rule="evenodd" clip-rule="evenodd" d="M14.393 12.8912L14.836 9.9999H12.0629V8.12398C12.0629 7.33367 12.4496 6.56164 13.6927 6.56164H14.9542V4.10062C14.9542 4.10062 13.8095 3.90515 12.7154 3.90515C10.4316 3.90515 8.9382 5.28896 8.9382 7.79633V9.99998H6.39844V12.8913H8.9382V19.8792C9.44724 19.9592 9.96897 20 10.5005 20C11.0321 20 11.5538 19.9578 12.0629 19.8792V12.8913H14.3931L14.393 12.8912Z" fill="#FEFEFE"/>
</svg>
