<svg width="21" height="20" viewBox="0 0 21 20" fill="none" xmlns="http://www.w3.org/2000/svg">
<mask id="mask0_1438_1278" style="mask-type:luminance" maskUnits="userSpaceOnUse" x="0" y="0" width="21" height="20">
<path d="M20.3793 0H0.5V20H20.3793V0Z" fill="white"/>
</mask>
<g mask="url(#mask0_1438_1278)">
<path d="M20.379 10.2296C20.379 9.54983 20.3231 8.86638 20.2038 8.19763H10.6387V12.0485H16.1162C15.8888 13.2904 15.1586 14.3891 14.0891 15.0872V17.5858H17.357C19.276 15.8441 20.379 13.272 20.379 10.2296Z" fill="#4285F4"/>
<path d="M10.6383 19.9999C13.3733 19.9999 15.6799 19.1144 17.3603 17.5857L14.0925 15.0871C13.1833 15.6971 12.0095 16.0426 10.642 16.0426C7.99641 16.0426 5.75325 14.2824 4.94839 11.9161H1.57617V14.4919C3.29768 17.8688 6.80403 19.9999 10.6383 19.9999Z" fill="#34A853"/>
<path d="M4.94526 11.9162C4.52047 10.6742 4.52047 9.32935 4.94526 8.08739V5.5116H1.57678C0.138469 8.33725 0.138469 11.6663 1.57678 14.4919L4.94526 11.9162Z" fill="#FBBC04"/>
<path d="M10.6383 3.95732C12.084 3.93527 13.4814 4.47173 14.5284 5.4565L17.4237 2.60144C15.5904 0.903855 13.1572 -0.029454 10.6383 -5.85361e-05C6.80402 -5.85361e-05 3.29768 2.13112 1.57617 5.51161L4.94465 8.0874C5.74578 5.71737 7.99268 3.95732 10.6383 3.95732Z" fill="#EA4335"/>
</g>
</svg>
